<mxfile host="65bd71144e">
    <diagram id="ptoPlsrCqgDLRDrU3V4A" name="Page-1">
        <mxGraphModel dx="1157" dy="925" grid="1" gridSize="10" guides="1" tooltips="1" connect="1" arrows="1" fold="1" page="1" pageScale="1" pageWidth="827" pageHeight="1169" math="0" shadow="0">
            <root>
                <mxCell id="0"/>
                <mxCell id="1" parent="0"/>
                <mxCell id="17" value="できない" style="rounded=0;whiteSpace=wrap;html=1;shadow=0;glass=0;sketch=0;strokeColor=none;strokeWidth=2;fontFamily=Helvetica;fontSize=14;fontColor=#007FFF;fillColor=none;align=center;spacing=8;verticalAlign=bottom;" parent="1" vertex="1">
                    <mxGeometry x="190" y="330" width="120" height="40" as="geometry"/>
                </mxCell>
                <UserObject label="説得力がない" link="#pattern-no-persuasion" id="21">
                    <mxCell style="rounded=1;whiteSpace=wrap;html=1;fontFamily=Helvetica;fontSize=18;fillColor=#FFFFFF;strokeColor=#0066CC;glass=0;shadow=0;fontColor=#2a5adf;verticalAlign=middle;strokeWidth=2;fontStyle=4" parent="1" vertex="1">
                        <mxGeometry x="280" y="40" width="180" height="60" as="geometry"/>
                    </mxCell>
                </UserObject>
                <mxCell id="34" value="" style="endArrow=block;html=1;rounded=0;fontFamily=Helvetica;fontSize=16;verticalAlign=middle;strokeWidth=3;strokeColor=#FF3333;endFill=1;" parent="1" source="41" target="43" edge="1">
                    <mxGeometry width="50" height="50" relative="1" as="geometry">
                        <mxPoint x="-30" y="130" as="sourcePoint"/>
                        <mxPoint x="20" y="80" as="targetPoint"/>
                    </mxGeometry>
                </mxCell>
                <mxCell id="36" value="" style="endArrow=block;html=1;rounded=0;fontFamily=Helvetica;fontSize=16;verticalAlign=middle;strokeWidth=3;strokeColor=#FF3333;endFill=1;" parent="1" source="42" target="44" edge="1">
                    <mxGeometry width="50" height="50" relative="1" as="geometry">
                        <mxPoint x="130" y="270" as="sourcePoint"/>
                        <mxPoint x="360" y="300" as="targetPoint"/>
                    </mxGeometry>
                </mxCell>
                <mxCell id="37" value="" style="endArrow=block;html=1;rounded=0;fontFamily=Helvetica;fontSize=16;verticalAlign=middle;strokeWidth=3;strokeColor=#FF3333;endFill=1;" parent="1" source="44" target="64" edge="1">
                    <mxGeometry width="50" height="50" relative="1" as="geometry">
                        <mxPoint x="370" y="290" as="sourcePoint"/>
                        <mxPoint x="130" y="440" as="targetPoint"/>
                    </mxGeometry>
                </mxCell>
                <mxCell id="39" value="できる" style="rounded=0;whiteSpace=wrap;html=1;shadow=0;glass=0;sketch=0;strokeColor=none;strokeWidth=2;fontFamily=Helvetica;fontSize=14;fontColor=#FF3333;fillColor=none;align=left;spacing=8;verticalAlign=middle;" parent="1" vertex="1">
                    <mxGeometry x="130" y="400" width="80" height="40" as="geometry"/>
                </mxCell>
                <mxCell id="40" value="ある" style="rounded=0;whiteSpace=wrap;html=1;shadow=0;glass=0;sketch=0;strokeColor=none;strokeWidth=2;fontFamily=Helvetica;fontSize=14;fontColor=#FF3333;fillColor=none;align=left;spacing=8;verticalAlign=middle;" parent="1" vertex="1">
                    <mxGeometry x="130" y="300" width="80" height="40" as="geometry"/>
                </mxCell>
                <mxCell id="41" value="説得力のある&lt;br&gt;メッセージ" style="rounded=1;whiteSpace=wrap;html=1;fontFamily=Helvetica;fontSize=18;verticalAlign=middle;fillColor=#FFFFFF;strokeColor=#999999;strokeWidth=2;fontColor=#000000;" parent="1" vertex="1">
                    <mxGeometry x="40" y="40" width="180" height="60" as="geometry"/>
                </mxCell>
                <mxCell id="42" value="合理的な計画" style="rounded=1;whiteSpace=wrap;html=1;fontFamily=Helvetica;fontSize=18;verticalAlign=middle;fillColor=#FFFFFF;strokeColor=#999999;strokeWidth=2;fontColor=#000000;" parent="1" vertex="1">
                    <mxGeometry x="40" y="240" width="180" height="60" as="geometry"/>
                </mxCell>
                <mxCell id="43" value="説得するべき有権者" style="rounded=1;whiteSpace=wrap;html=1;fontFamily=Helvetica;fontSize=18;verticalAlign=middle;fillColor=#FFFFFF;strokeColor=#999999;strokeWidth=2;fontColor=#000000;" parent="1" vertex="1">
                    <mxGeometry x="40" y="140" width="180" height="60" as="geometry"/>
                </mxCell>
                <mxCell id="44" value="当選するための努力" style="rounded=1;whiteSpace=wrap;html=1;fontFamily=Helvetica;fontSize=18;verticalAlign=middle;fillColor=#FFFFFF;strokeColor=#999999;strokeWidth=2;fontColor=#000000;" parent="1" vertex="1">
                    <mxGeometry x="40" y="340" width="180" height="60" as="geometry"/>
                </mxCell>
                <mxCell id="49" value="" style="endArrow=block;html=1;rounded=0;fontFamily=Helvetica;fontSize=16;verticalAlign=middle;strokeWidth=3;strokeColor=#FF3333;endFill=1;" parent="1" source="43" target="42" edge="1">
                    <mxGeometry width="50" height="50" relative="1" as="geometry">
                        <mxPoint x="140" y="110" as="sourcePoint"/>
                        <mxPoint x="140" y="150" as="targetPoint"/>
                    </mxGeometry>
                </mxCell>
                <mxCell id="50" value="" style="endArrow=block;html=1;rounded=0;fontFamily=Helvetica;fontSize=16;verticalAlign=middle;strokeWidth=3;strokeColor=#007FFF;endFill=1;" parent="1" source="41" target="21" edge="1">
                    <mxGeometry width="50" height="50" relative="1" as="geometry">
                        <mxPoint x="212" y="150" as="sourcePoint"/>
                        <mxPoint x="280" y="70" as="targetPoint"/>
                    </mxGeometry>
                </mxCell>
                <mxCell id="52" value="" style="endArrow=block;html=1;rounded=0;fontFamily=Helvetica;fontSize=16;verticalAlign=middle;strokeWidth=3;strokeColor=#007FFF;endFill=1;" parent="1" source="42" target="62" edge="1">
                    <mxGeometry width="50" height="50" relative="1" as="geometry">
                        <mxPoint x="212" y="150" as="sourcePoint"/>
                        <mxPoint x="280" y="270" as="targetPoint"/>
                    </mxGeometry>
                </mxCell>
                <mxCell id="54" value="" style="endArrow=block;html=1;rounded=0;fontFamily=Helvetica;fontSize=16;verticalAlign=middle;strokeWidth=3;strokeColor=#007FFF;endFill=1;" parent="1" source="44" target="63" edge="1">
                    <mxGeometry width="50" height="50" relative="1" as="geometry">
                        <mxPoint x="230" y="280" as="sourcePoint"/>
                        <mxPoint x="280" y="370" as="targetPoint"/>
                    </mxGeometry>
                </mxCell>
                <mxCell id="55" value="わかる" style="rounded=0;whiteSpace=wrap;html=1;shadow=0;glass=0;sketch=0;strokeColor=none;strokeWidth=2;fontFamily=Helvetica;fontSize=14;fontColor=#FF3333;fillColor=none;align=left;spacing=8;verticalAlign=middle;" parent="1" vertex="1">
                    <mxGeometry x="130" y="200" width="80" height="40" as="geometry"/>
                </mxCell>
                <mxCell id="56" value="ある" style="rounded=0;whiteSpace=wrap;html=1;shadow=0;glass=0;sketch=0;strokeColor=none;strokeWidth=2;fontFamily=Helvetica;fontSize=14;fontColor=#FF3333;fillColor=none;align=left;spacing=8;verticalAlign=middle;" parent="1" vertex="1">
                    <mxGeometry x="130" y="100" width="80" height="40" as="geometry"/>
                </mxCell>
                <mxCell id="58" value="" style="endArrow=block;html=1;fontFamily=Helvetica;fontSize=16;verticalAlign=middle;strokeWidth=3;strokeColor=#007FFF;endFill=1;edgeStyle=elbowEdgeStyle;rounded=1;" parent="1" source="43" target="21" edge="1">
                    <mxGeometry width="50" height="50" relative="1" as="geometry">
                        <mxPoint x="230" y="82.19512195121945" as="sourcePoint"/>
                        <mxPoint x="280" y="70" as="targetPoint"/>
                    </mxGeometry>
                </mxCell>
                <mxCell id="59" value="ない" style="rounded=0;whiteSpace=wrap;html=1;shadow=0;glass=0;sketch=0;strokeColor=none;strokeWidth=2;fontFamily=Helvetica;fontSize=14;fontColor=#007FFF;fillColor=none;align=center;spacing=8;verticalAlign=bottom;" parent="1" vertex="1">
                    <mxGeometry x="190" y="230" width="120" height="40" as="geometry"/>
                </mxCell>
                <mxCell id="60" value="ない" style="rounded=0;whiteSpace=wrap;html=1;shadow=0;glass=0;sketch=0;strokeColor=none;strokeWidth=2;fontFamily=Helvetica;fontSize=14;fontColor=#007FFF;fillColor=none;align=center;spacing=8;verticalAlign=bottom;" parent="1" vertex="1">
                    <mxGeometry x="190" y="30" width="120" height="40" as="geometry"/>
                </mxCell>
                <mxCell id="61" value="わからない" style="rounded=0;whiteSpace=wrap;html=1;shadow=0;glass=0;sketch=0;strokeColor=none;strokeWidth=2;fontFamily=Helvetica;fontSize=14;fontColor=#007FFF;fillColor=none;align=center;spacing=8;verticalAlign=bottom;" parent="1" vertex="1">
                    <mxGeometry x="200" y="160" width="120" height="40" as="geometry"/>
                </mxCell>
                <UserObject label="合理的な計画がない" link="#pattern-no-reasonable-plan" id="62">
                    <mxCell style="rounded=1;whiteSpace=wrap;html=1;fontFamily=Helvetica;fontSize=18;fillColor=#FFFFFF;strokeColor=#0066CC;glass=0;shadow=0;fontColor=#2a5adf;verticalAlign=middle;strokeWidth=2;fontStyle=4" parent="1" vertex="1">
                        <mxGeometry x="280" y="240" width="180" height="60" as="geometry"/>
                    </mxCell>
                </UserObject>
                <UserObject label="当選するための&lt;br&gt;努力ができない" link="#pattern-no-effort-to-get-elected" id="63">
                    <mxCell style="rounded=1;whiteSpace=wrap;html=1;fontFamily=Helvetica;fontSize=18;fillColor=#FFFFFF;strokeColor=#0066CC;glass=0;shadow=0;fontColor=#2a5adf;verticalAlign=middle;strokeWidth=2;fontStyle=4" parent="1" vertex="1">
                        <mxGeometry x="280" y="340" width="180" height="60" as="geometry"/>
                    </mxCell>
                </UserObject>
                <UserObject label="成功する選挙運動" link="#pattern-successful-campaign" id="64">
                    <mxCell style="rounded=1;whiteSpace=wrap;html=1;fontFamily=Helvetica;fontSize=18;fillColor=#FFFFFF;strokeColor=#FF3333;glass=0;shadow=0;fontColor=#FF3333;verticalAlign=middle;strokeWidth=2;fontStyle=4" parent="1" vertex="1">
                        <mxGeometry x="40" y="440" width="180" height="60" as="geometry"/>
                    </mxCell>
                </UserObject>
                <mxCell id="65" value="👍" style="text;html=1;align=center;verticalAlign=middle;resizable=0;points=[];autosize=1;strokeColor=none;fillColor=none;fontColor=default;fontSize=27;spacing=0;" parent="1" vertex="1">
                    <mxGeometry x="20" y="420" width="50" height="40" as="geometry"/>
                </mxCell>
                <mxCell id="66" value="😴" style="text;html=1;align=center;verticalAlign=middle;resizable=0;points=[];autosize=1;strokeColor=none;fillColor=none;fontColor=default;fontSize=27;spacing=0;" parent="1" vertex="1">
                    <mxGeometry x="345" y="315" width="50" height="40" as="geometry"/>
                </mxCell>
                <mxCell id="67" value="💸" style="text;html=1;align=center;verticalAlign=middle;resizable=0;points=[];autosize=1;strokeColor=none;fillColor=none;fontColor=default;fontSize=27;spacing=0;" parent="1" vertex="1">
                    <mxGeometry x="345" y="220" width="50" height="40" as="geometry"/>
                </mxCell>
                <mxCell id="68" value="❓" style="text;html=1;align=center;verticalAlign=middle;resizable=0;points=[];autosize=1;strokeColor=none;fillColor=none;fontColor=default;fontSize=27;spacing=0;" parent="1" vertex="1">
                    <mxGeometry x="340" y="20" width="50" height="40" as="geometry"/>
                </mxCell>
            </root>
        </mxGraphModel>
    </diagram>
</mxfile>